<svg width="528" height="490" xmlns="http://www.w3.org/2000/svg" xmlns:xlink="http://www.w3.org/1999/xlink" overflow="hidden"><defs><clipPath id="clip0"><rect x="0" y="0" width="528" height="490"/></clipPath></defs><g clip-path="url(#clip0)"><rect x="0" y="0" width="528" height="490.334" fill="#FFFFFF"/><path d="M196 411.78 234.25 411.78 234.25 129.088 310.75 129.088 310.75 411.78 349 411.78 272.5 488.332Z" fill="#CBCBCB" fill-rule="evenodd"/><path d="M156 53.2031C156 47.0316 161 42.0286 167.167 42.0286L194.833 42.0286 194.833 42.0286 253.083 42.0286 377.833 42.0286C384 42.0286 389 47.0316 389 53.2031L389 81.1385 389 81.1385 389 97.9 389 97.8997C389 104.071 384 109.074 377.833 109.074L253.083 109.074 223.959 117.455 194.833 109.074 167.167 109.074C161 109.074 156 104.071 156 97.8997L156 97.9 156 81.1385 156 81.1385Z" stroke="#000000" stroke-width="2" stroke-miterlimit="8" fill="#FFD8B5" fill-rule="evenodd"/><text font-family="Calibri,Calibri_MSFontService,sans-serif" font-style="italic" font-weight="400" font-size="24.0163" transform="matrix(1 0 0 1.00068 181.12 83)">put carrot on plate</text><text font-family="Aptos,Aptos_MSFontService,sans-serif" font-weight="400" font-size="24.0163" transform="matrix(1 0 0 1.00068 173.15 28)">Original Instruction</text><path d="M23 175.119C23 166.829 29.7158 160.109 38.0003 160.109L61.8333 160.109 61.8333 160.109 120.083 160.109 241 160.109C249.284 160.109 256 166.829 256 175.119L256 212.645 256 212.645 256 235.16 256 235.16C256 243.45 249.284 250.17 241 250.17L120.083 250.17 90.9591 261.428 61.8333 250.17 38.0003 250.17C29.7158 250.17 23 243.45 23 235.16L23 235.16 23 212.645 23 212.645Z" stroke="#000000" stroke-width="2" stroke-miterlimit="8" fill="#FEFCE9" fill-rule="evenodd"/><text font-family="Calibri,Calibri_MSFontService,sans-serif" font-style="italic" font-weight="400" font-size="24.0163" transform="matrix(1 0 0 1.00068 54.3046 184)">pick up the carrot</text><text font-family="Calibri,Calibri_MSFontService,sans-serif" font-style="italic" font-weight="400" font-size="24.0163" transform="matrix(1 0 0 1.00068 54.8646 213)">and drop it off on</text><text font-family="Calibri,Calibri_MSFontService,sans-serif" font-style="italic" font-weight="400" font-size="24.0163" transform="matrix(1 0 0 1.00068 96.1913 242)">the plate</text><text font-family="Aptos,Aptos_MSFontService,sans-serif" font-weight="400" font-size="24.0163" transform="matrix(1 0 0 1.00068 53.6678 149)">Language Action</text><text font-family="Aptos,Aptos_MSFontService,sans-serif" font-weight="400" font-size="24.0163" transform="matrix(1 0 0 1.00068 299.799 148)">Language Negation</text><path d="M283 175.953C283 167.755 289.641 161.11 297.834 161.11L321.833 161.11 321.833 161.11 380.083 161.11 501.166 161.11C509.359 161.11 516 167.755 516 175.953L516 213.062 516 213.062 516 235.327 516 235.326C516 243.524 509.359 250.17 501.166 250.17L380.083 250.17 350.959 261.303 321.833 250.17 297.834 250.17C289.641 250.17 283 243.524 283 235.326L283 235.327 283 213.062 283 213.062Z" stroke="#000000" stroke-width="2" stroke-miterlimit="8" fill="#FEFCE9" fill-rule="evenodd"/><text font-family="Calibri,Calibri_MSFontService,sans-serif" font-style="italic" font-weight="400" font-size="24.0163" transform="matrix(1 0 0 1.00068 298.242 199)">put the carrot on the</text><text font-family="Calibri,Calibri_MSFontService,sans-serif" font-style="italic" font-weight="400" font-size="24.0163" transform="matrix(1 0 0 1.00068 303.915 228)">plate, not the towel</text><text font-family="Aptos,Aptos_MSFontService,sans-serif" font-weight="400" font-size="24.0163" transform="matrix(1 0 0 1.00068 24.3577 334)">Language Appearance</text><path d="M24 361.246C24 352.956 30.7158 346.236 39.0003 346.236L62.8333 346.236 62.8333 346.236 121.083 346.236 242 346.236C250.284 346.236 257 352.956 257 361.246L257 398.771 257 398.771 257 421.287 257 421.286C257 429.576 250.284 436.297 242 436.297L121.083 436.297 91.9591 447.554 62.8333 436.297 39.0003 436.297C30.7158 436.297 24 429.576 24 421.286L24 421.287 24 398.771 24 398.771Z" stroke="#000000" stroke-width="2" stroke-miterlimit="8" fill="#FEFCE9" fill-rule="evenodd"/><text font-family="Calibri,Calibri_MSFontService,sans-serif" font-style="italic" font-weight="400" font-size="24.0163" transform="matrix(1 0 0 1.00068 68.1262 370)">put the orange</text><text font-family="Calibri,Calibri_MSFontService,sans-serif" font-style="italic" font-weight="400" font-size="24.0163" transform="matrix(1 0 0 1.00068 42.6862 399)">object on the yellow</text><text font-family="Calibri,Calibri_MSFontService,sans-serif" font-style="italic" font-weight="400" font-size="24.0163" transform="matrix(1 0 0 1.00068 110.46 428)">object</text><text font-family="Aptos,Aptos_MSFontService,sans-serif" font-weight="400" font-size="24.0163" transform="matrix(1 0 0 1.00068 319.665 336)">Commonsense</text><path d="M283 362.247C283 353.957 289.716 347.236 298 347.236L321.833 347.236 321.833 347.236 380.083 347.236 501 347.236C509.284 347.236 516 353.957 516 362.247L516 399.772 516 399.772 516 422.287 516 422.287C516 430.577 509.284 437.297 501 437.297L380.083 437.297 350.959 448.555 321.833 437.297 298 437.297C289.716 437.297 283 430.577 283 422.287L283 422.287 283 399.772 283 399.772Z" stroke="#000000" stroke-width="2" stroke-miterlimit="8" fill="#E6FFE6" fill-rule="evenodd"/><text font-family="Calibri,Calibri_MSFontService,sans-serif" font-style="italic" font-weight="400" font-size="24.0163" transform="matrix(1 0 0 1.00068 303.002 371)">put rabbit’s favorite</text><text font-family="Calibri,Calibri_MSFontService,sans-serif" font-style="italic" font-weight="400" font-size="24.0163" transform="matrix(1 0 0 1.00068 317.809 400)">vegetable on the</text><text font-family="Calibri,Calibri_MSFontService,sans-serif" font-style="italic" font-weight="400" font-size="24.0163" transform="matrix(1 0 0 1.00068 374.462 429)">plate</text></g></svg>