<svg width="720" height="605" xmlns="http://www.w3.org/2000/svg" xmlns:xlink="http://www.w3.org/1999/xlink" overflow="hidden"><defs><clipPath id="clip0"><rect x="0" y="0" width="720" height="605"/></clipPath><clipPath id="clip1"><path d="M87.9318 17.7794 458.831 364.175 427.93 397.262 57.0306 50.8664Z" fill-rule="evenodd" clip-rule="evenodd"/></clipPath><clipPath id="clip2"><path d="M87.9318 17.7794 458.831 364.175 427.93 397.262 57.0306 50.8664Z" fill-rule="evenodd" clip-rule="evenodd"/></clipPath><clipPath id="clip3"><path d="M275.96-67.2527 355.28 215.845 317.914 226.315 238.593-56.7831Z" fill-rule="evenodd" clip-rule="evenodd"/></clipPath><clipPath id="clip4"><path d="M275.96-67.2527 355.28 215.845 317.914 226.315 238.593-56.7831Z" fill-rule="evenodd" clip-rule="evenodd"/></clipPath><clipPath id="clip5"><path d="M51.8121-11.5471 355.353 271.94 328.866 300.3 25.3254 16.8132Z" fill-rule="evenodd" clip-rule="evenodd"/></clipPath><clipPath id="clip6"><path d="M51.8121-11.5471 355.353 271.94 328.866 300.3 25.3254 16.8132Z" fill-rule="evenodd" clip-rule="evenodd"/></clipPath><clipPath id="clip7"><path d="M-130.398 180.647 404.182 291.735 396.287 329.728-138.293 218.641Z" fill-rule="evenodd" clip-rule="evenodd"/></clipPath><clipPath id="clip8"><path d="M-130.398 180.647 404.182 291.735 396.287 329.728-138.293 218.641Z" fill-rule="evenodd" clip-rule="evenodd"/></clipPath><clipPath id="clip9"><path d="M213.355 581.559 353.26 259.465 394.785 277.502 254.88 599.595Z" fill-rule="evenodd" clip-rule="evenodd"/></clipPath><clipPath id="clip10"><path d="M213.355 581.559 353.26 259.465 394.785 277.502 254.88 599.595Z" fill-rule="evenodd" clip-rule="evenodd"/></clipPath><clipPath id="clip11"><path d="M-126.667 454.404 396.601 268.434 409.597 304.998-113.672 490.968Z" fill-rule="evenodd" clip-rule="evenodd"/></clipPath><clipPath id="clip12"><path d="M-126.667 454.404 396.602 268.434 409.597 304.998-113.672 490.968Z" fill-rule="evenodd" clip-rule="evenodd"/></clipPath><clipPath id="clip13"><path d="M29.0254 677.565 367.709 261.266 397.811 285.756 59.1271 702.054Z" fill-rule="evenodd" clip-rule="evenodd"/></clipPath><clipPath id="clip14"><path d="M29.0254 677.565 367.709 261.266 397.811 285.756 59.1271 702.054Z" fill-rule="evenodd" clip-rule="evenodd"/></clipPath><clipPath id="clip15"><path d="M345.596 221.995 592.87 791.277 557.278 806.737 310.003 237.455Z" fill-rule="evenodd" clip-rule="evenodd"/></clipPath><clipPath id="clip16"><path d="M345.596 221.995 592.87 791.277 557.278 806.737 310.003 237.455Z" fill-rule="evenodd" clip-rule="evenodd"/></clipPath><clipPath id="clip17"><path d="M239.586 308.763 717.784 138.812 740.526 202.8 262.328 372.752Z" fill-rule="evenodd" clip-rule="evenodd"/></clipPath><clipPath id="clip18"><path d="M239.587 308.763 717.784 138.812 740.526 202.8 262.328 372.752Z" fill-rule="evenodd" clip-rule="evenodd"/></clipPath><clipPath id="clip19"><path d="M339.034 286.635 824.497 185.755 832.393 223.749 346.93 324.629Z" fill-rule="evenodd" clip-rule="evenodd"/></clipPath><clipPath id="clip20"><path d="M339.034 286.635 824.497 185.755 832.393 223.749 346.93 324.629Z" fill-rule="evenodd" clip-rule="evenodd"/></clipPath><clipPath id="clip21"><path d="M308.49 361.67 591.354-184.232 622.937-167.866 340.073 378.035Z" fill-rule="evenodd" clip-rule="evenodd"/></clipPath><clipPath id="clip22"><path d="M308.49 361.67 591.354-184.232 622.937-167.866 340.073 378.035Z" fill-rule="evenodd" clip-rule="evenodd"/></clipPath><clipPath id="clip23"><path d="M347.216 260.851 796.784 534.239 766.54 583.974 316.973 310.586Z" fill-rule="evenodd" clip-rule="evenodd"/></clipPath><clipPath id="clip24"><path d="M347.216 260.851 796.784 534.239 766.54 583.974 316.973 310.586Z" fill-rule="evenodd" clip-rule="evenodd"/></clipPath></defs><g clip-path="url(#clip0)"><rect x="0" y="0" width="720" height="605.167" fill="#FFFFFF"/><rect x="-93" y="18" width="905" height="569" fill="#000000" fill-opacity="0"/><g><path d="M359.329 117.215C325.43 117.215 292.183 126.533 263.219 144.151L215.164 65.1062C258.61 38.679 308.481 24.7021 359.329 24.7022Z" stroke="#FFFFFF" stroke-width="2" stroke-miterlimit="2" fill="#156082"/><path d="M263.219 144.151C234.255 161.769 210.689 187.01 195.093 217.117L112.975 174.555C136.368 129.395 171.718 91.5336 215.164 65.1064Z" stroke="#FFFFFF" stroke-width="2" stroke-miterlimit="2" fill="#156082"/><path d="M195.093 217.117C179.497 247.223 172.472 281.038 174.786 314.867L82.5138 321.181C79.0438 270.437 89.581 219.715 112.975 174.555Z" stroke="#FFFFFF" stroke-width="2" stroke-miterlimit="2" fill="#156082"/><path d="M174.786 314.867C177.099 348.697 188.662 381.239 208.21 408.941L132.651 462.292C103.328 420.739 85.9838 371.924 82.5138 321.181Z" stroke="#FFFFFF" stroke-width="2" stroke-miterlimit="2" fill="#E97132"/><path d="M208.21 408.941C227.759 436.643 254.542 458.439 285.635 471.948L248.788 556.802C202.149 536.538 161.974 503.845 132.651 462.292Z" stroke="#FFFFFF" stroke-width="2" stroke-miterlimit="2" fill="#E97132"/><path d="M285.635 471.948C316.727 485.457 350.933 490.16 384.516 485.543L397.11 577.194C346.735 584.12 295.427 577.066 248.788 556.802Z" stroke="#FFFFFF" stroke-width="2" stroke-miterlimit="2" fill="#E97132"/><path d="M384.516 485.543C418.1 480.926 449.768 467.166 476.064 445.767L534.432 517.53C494.988 549.629 447.485 570.268 397.11 577.194Z" stroke="#FFFFFF" stroke-width="2" stroke-miterlimit="2" fill="#E97132"/><path d="M476.064 445.767C509.051 418.923 531.783 381.531 540.435 339.885L630.988 358.708C618.01 421.176 583.911 477.265 534.432 517.53Z" stroke="#FFFFFF" stroke-width="2" stroke-miterlimit="2" fill="#196B24"/><path d="M540.435 339.885C550.862 289.693 540.003 237.422 510.448 195.54L586.007 142.19C630.34 205.013 646.629 283.418 630.988 358.708Z" stroke="#FFFFFF" stroke-width="2" stroke-miterlimit="2" fill="#196B24"/><path d="M510.448 195.54C475.788 146.424 419.432 117.215 359.329 117.215L359.329 24.7021C449.483 24.7021 534.017 68.5161 586.007 142.19Z" stroke="#FFFFFF" stroke-width="2" stroke-miterlimit="2" fill="#196B24"/><path d="M359.5 209.5C333.704 209.728 309.227 220.363 291.5 239.5 274.245 257.829 265.309 282.981 267.5 308.5L174.5 314.5C171.288 263.722 189.161 213.417 224.5 175.5 259.124 138.485 308.078 117.215 359.5 117.5Z" stroke="#000000" stroke-width="0.666667" stroke-miterlimit="2" fill="#FEFCE9"/><path d="M359.5 117.5C325.43 117.215 292.183 126.533 263.5 144.5L215.5 65.5C258.61 38.679 308.481 24.7021 359.5 24.5Z" stroke="#000000" stroke-width="0.666667" stroke-miterlimit="2" fill="#FEFCE9"/><path d="M263.5 144.5C234.255 161.769 210.689 187.01 195.5 217.5L112.5 174.5C136.368 129.395 171.718 91.5336 215.5 65.5Z" stroke="#000000" stroke-width="0.666667" stroke-miterlimit="2" fill="#FEFCE9"/><path d="M195.5 217.5C179.497 247.223 172.472 281.038 174.5 314.5L82.5 321.5C79.0438 270.437 89.581 219.715 112.5 174.5Z" stroke="#000000" stroke-width="0.666667" stroke-miterlimit="2" fill="#FEFCE9"/><path d="M267.5 308.5C269.415 343.035 290.791 373.325 322.5 387.5 354.173 400.864 390.895 395.815 417.5 374.5L476.5 445.5C422.46 489.389 349.017 499.487 285.5 471.5 222.253 444.41 179.501 383.829 174.5 314.5Z" stroke="#000000" stroke-width="0.666667" stroke-miterlimit="2" fill="#E6E6FF"/><path d="M174.5 314.5C177.099 348.697 188.662 381.239 208.5 408.5L132.5 462.5C103.328 420.739 85.9838 371.924 82.5 321.5Z" stroke="#000000" stroke-width="0.666667" stroke-miterlimit="2" fill="#E6E6FF"/><path d="M208.5 408.5C227.759 436.643 254.542 458.439 285.5 471.5L248.5 556.5C202.149 536.538 161.974 503.845 132.5 462.5Z" stroke="#000000" stroke-width="0.666667" stroke-miterlimit="2" fill="#E6E6FF"/><path d="M285.5 471.5C316.727 485.457 350.933 490.16 384.5 485.5L397.5 577.5C346.735 584.12 295.427 577.066 248.5 556.5Z" stroke="#000000" stroke-width="0.666667" stroke-miterlimit="2" fill="#E6E6FF"/><path d="M384.5 485.5C418.1 480.926 449.768 467.166 476.5 445.5L534.5 517.5C494.988 549.629 447.485 570.268 397.5 577.5Z" stroke="#000000" stroke-width="0.666667" stroke-miterlimit="2" fill="#E6E6FF"/><path d="M417.5 374.5C448.057 349.297 459.583 308.149 446.5 271.5 433.369 234.371 398.468 209.728 359.5 209.5L359.5 117.5C437.607 117.215 507.41 166.501 533.5 240.5 559.837 314.058 536.785 396.353 476.5 445.5Z" stroke="#000000" stroke-width="0.666667" stroke-miterlimit="2" fill="#E6FFE6"/><path d="M476.5 445.5C509.051 418.923 531.783 381.531 540.5 339.5L630.5 358.5C618.01 421.176 583.911 477.265 534.5 517.5Z" stroke="#000000" stroke-width="0.666667" stroke-miterlimit="2" fill="#E6FFE6"/><path d="M540.5 339.5C550.862 289.693 540.003 237.422 510.5 195.5L586.5 142.5C630.34 205.013 646.629 283.418 630.5 358.5Z" stroke="#000000" stroke-width="0.666667" stroke-miterlimit="2" fill="#E6FFE6"/><path d="M510.5 195.5C475.788 146.424 419.432 117.215 359.5 117.5L359.5 24.5C449.483 24.7021 534.017 68.5161 586.5 142.5Z" stroke="#000000" stroke-width="0.666667" stroke-miterlimit="2" fill="#E6FFE6"/><g clip-path="url(#clip1)"><text font-family="Calibri,Calibri_MSFontService,sans-serif" font-weight="400" font-size="19" transform="matrix(0.730836 0.682553 -0.682741 0.731037 235.126 179)">Language</text></g><g clip-path="url(#clip2)"><text font-family="Calibri,Calibri_MSFontService,sans-serif" font-weight="400" font-size="19" transform="matrix(0.730836 0.682553 -0.682741 0.731037 238.97 214)">12</text></g><g clip-path="url(#clip3)"><text font-family="Calibri,Calibri_MSFontService,sans-serif" font-weight="400" font-size="16" transform="matrix(0.269797 0.962917 -0.963183 0.269871 295.317 58)">Action</text></g><g clip-path="url(#clip4)"><text font-family="Calibri,Calibri_MSFontService,sans-serif" font-weight="400" font-size="16" transform="matrix(0.269797 0.962917 -0.963183 0.269871 281.58 80)">4</text></g><g clip-path="url(#clip5)"><text font-family="Calibri,Calibri_MSFontService,sans-serif" font-weight="400" font-size="16" transform="matrix(0.730836 0.682553 -0.682741 0.731037 171.526 121)">Negation</text></g><g clip-path="url(#clip6)"><text font-family="Calibri,Calibri_MSFontService,sans-serif" font-weight="400" font-size="16" transform="matrix(0.730836 0.682553 -0.682741 0.731037 177.253 152)">4</text></g><g clip-path="url(#clip7)"><text font-family="Calibri,Calibri_MSFontService,sans-serif" font-weight="400" font-size="16" transform="matrix(0.979084 0.203456 -0.203512 0.979354 95.6153 243)">Appearance</text></g><g clip-path="url(#clip8)"><text font-family="Calibri,Calibri_MSFontService,sans-serif" font-weight="400" font-size="16" transform="matrix(0.979084 0.203456 -0.203512 0.979354 125.932 269)">4</text></g><g clip-path="url(#clip9)"><text font-family="Calibri,Calibri_MSFontService,sans-serif" font-weight="400" font-size="19" transform="matrix(0.398401 -0.917211 0.917464 0.398511 289.121 450)">Object</text></g><g clip-path="url(#clip10)"><text font-family="Calibri,Calibri_MSFontService,sans-serif" font-weight="400" font-size="19" transform="matrix(0.398401 -0.917211 0.917464 0.398511 316.433 445)">16</text></g><g clip-path="url(#clip11)"><text font-family="Calibri,Calibri_MSFontService,sans-serif" font-weight="400" font-size="16" transform="matrix(0.942261 -0.33488 0.334972 0.942521 102.681 389)">OOD Source</text></g><g clip-path="url(#clip12)"><text font-family="Calibri,Calibri_MSFontService,sans-serif" font-weight="400" font-size="16" transform="matrix(0.942261 -0.33488 0.334972 0.942521 142.571 395)">4</text></g><g clip-path="url(#clip13)"><text font-family="Calibri,Calibri_MSFontService,sans-serif" font-weight="400" font-size="16" transform="matrix(0.631088 -0.775711 0.775925 0.631262 185.967 509)">OOD Target</text></g><g clip-path="url(#clip14)"><text font-family="Calibri,Calibri_MSFontService,sans-serif" font-weight="400" font-size="16" transform="matrix(0.631088 -0.775711 0.775925 0.631262 222.322 494)">4</text></g><g clip-path="url(#clip15)"><text font-family="Calibri,Calibri_MSFontService,sans-serif" font-weight="400" font-size="16" transform="matrix(0.398401 0.917211 -0.917464 0.398511 437.629 472)">OOD Relation</text></g><g clip-path="url(#clip16)"><text font-family="Calibri,Calibri_MSFontService,sans-serif" font-weight="400" font-size="16" transform="matrix(0.398401 0.917211 -0.917464 0.398511 436.234 517)">4</text></g><g clip-path="url(#clip17)"><text font-family="Calibri,Calibri_MSFontService,sans-serif" font-weight="400" font-size="19" transform="matrix(0.942261 -0.33488 0.334972 0.94252 456.305 250)">Vision +</text></g><text font-family="Calibri,Calibri_MSFontService,sans-serif" font-weight="400" font-size="19" transform="matrix(0.942261 -0.33488 0.334972 0.94252 458.042 274)">Language</text><g clip-path="url(#clip18)"><text font-family="Calibri,Calibri_MSFontService,sans-serif" font-weight="400" font-size="19" transform="matrix(0.942261 -0.33488 0.334972 0.94252 490.613 286)">18</text></g><g clip-path="url(#clip19)"><text font-family="Calibri,Calibri_MSFontService,sans-serif" font-weight="400" font-size="16" transform="matrix(0.979084 -0.203456 0.203512 0.979354 550.183 258)">Distractors</text></g><g clip-path="url(#clip20)"><text font-family="Calibri,Calibri_MSFontService,sans-serif" font-weight="400" font-size="16" transform="matrix(0.979084 -0.203456 0.203512 0.979354 584.727 271)">6</text></g><g clip-path="url(#clip21)"><text font-family="Calibri,Calibri_MSFontService,sans-serif" font-weight="400" font-size="15" transform="matrix(0.460066 -0.887885 0.88813 0.460192 442.311 134)">Commonsense</text></g><g clip-path="url(#clip22)"><text font-family="Calibri,Calibri_MSFontService,sans-serif" font-weight="400" font-size="15" transform="matrix(0.460066 -0.887885 0.88813 0.460192 475.888 106)">7</text></g><g clip-path="url(#clip23)"><text font-family="Calibri,Calibri_MSFontService,sans-serif" font-weight="400" font-size="16" transform="matrix(0.854419 0.519584 -0.519727 0.854655 531.94 391)">Common. +</text></g><text font-family="Calibri,Calibri_MSFontService,sans-serif" font-weight="400" font-size="16" transform="matrix(0.854419 0.519584 -0.519727 0.854655 532.603 414)">Distract</text><g clip-path="url(#clip24)"><text font-family="Calibri,Calibri_MSFontService,sans-serif" font-weight="400" font-size="16" transform="matrix(0.854419 0.519584 -0.519727 0.854655 540.814 441)">5</text></g></g><path d="M-93 17.0047 813.658 17.0047 813.658 587.486-93 587.486Z" fill="#000000" fill-rule="evenodd" fill-opacity="0"/><text font-family="Aptos,Aptos_MSFontService,sans-serif" font-weight="400" font-size="24.0066" transform="matrix(1 0 0 1.00028 316.98 308)">INT</text><text font-family="Aptos,Aptos_MSFontService,sans-serif" font-weight="400" font-size="24.0066" transform="matrix(1 0 0 1.00028 350.32 308)">-</text><text font-family="Aptos,Aptos_MSFontService,sans-serif" font-weight="400" font-size="24.0066" transform="matrix(1 0 0 1.00028 358.487 308)">ACT</text><text font-family="Calibri,Calibri_MSFontService,sans-serif" font-weight="400" font-size="16.0044" transform="matrix(0.370891 -0.929188 0.928421 0.370993 308.022 573)">OOD</text><text font-family="Calibri,Calibri_MSFontService,sans-serif" font-weight="400" font-size="16.0044" transform="matrix(0.370891 -0.929188 0.928421 0.370993 320.942 541)">Src</text><text font-family="Calibri,Calibri_MSFontService,sans-serif" font-weight="400" font-size="16.0044" transform="matrix(0.370891 -0.929188 0.928421 0.370993 329.509 520)">+</text><text font-family="Calibri,Calibri_MSFontService,sans-serif" font-weight="400" font-size="16.0044" transform="matrix(0.370891 -0.929188 0.928421 0.370993 333.836 509)">Tgt</text><text font-family="Calibri,Calibri_MSFontService,sans-serif" font-weight="400" font-size="16.0044" transform="matrix(0.370891 -0.929188 0.928421 0.370993 340.624 543)">4</text></g></svg>